/* XPM */
static char *icon48[] = {
/* columns rows colors chars-per-pixel */
"32 32 100 2",
"   c #000000",
".  c #07070B",
"X  c #0B0000",
"o  c #0C0C0C",
"O  c #0D0D14",
"+  c #0E0E1B",
"@  c #160000",
"#  c #1D0000",
"$  c #161606",
"%  c #1A1708",
"&  c #1C1907",
"*  c #1E1C08",
"=  c #141414",
"-  c #12121C",
";  c #1A1A1A",
":  c #161622",
">  c #240000",
",  c #2B0000",
"<  c #211E08",
"1  c #330000",
"2  c #3D0000",
"3  c #322F05",
"4  c #222234",
"5  c #343434",
"6  c #2F2F49",
"7  c #31314A",
"8  c #420100",
"9  c #4D0000",
"0  c #530000",
"q  c #5A0000",
"w  c #511205",
"e  c #640000",
"r  c #6A0000",
"t  c #750000",
"y  c #7A0000",
"u  c #7E3F12",
"i  c #565313",
"p  c #565618",
"a  c #5A5A17",
"s  c #585819",
"d  c #626216",
"f  c #6F6F18",
"g  c #606020",
"h  c #7C7C3A",
"j  c #4C4C4C",
"k  c #535353",
"l  c #5A5A5A",
"z  c #414164",
"x  c #434369",
"c  c #48486F",
"v  c #4E4E78",
"b  c #646464",
"n  c #757575",
"m  c #7C7C7C",
"M  c #565682",
"N  c #5B5B8C",
"B  c #515199",
"V  c #5A5A9C",
"C  c #66669C",
"Z  c #6B6BA2",
"A  c #7373B0",
"S  c #830000",
"D  c #880000",
"F  c #9A0000",
"G  c #A30000",
"H  c #AD0000",
"J  c #B30000",
"K  c #BC0000",
"L  c #965719",
"P  c #9D5E1B",
"I  c #AC6D1F",
"U  c #C10000",
"Y  c #CB0000",
"T  c #84842B",
"R  c #8A8A29",
"E  c #9D9D25",
"W  c #9E9C2C",
"Q  c #9E9D31",
"!  c #A1A12E",
"~  c #A2A231",
"^  c #B8B84A",
"/  c #B4B457",
"(  c #C8C837",
")  c #DADA46",
"_  c #FFFF4A",
"`  c #FFFF50",
"'  c #858585",
"]  c #8B8B8B",
"[  c #979797",
"{  c #9C9C9C",
"}  c #A2A2A2",
"|  c #ACACAC",
" . c #B2B2B2",
".. c #B9B9B9",
"X. c #C4C4C4",
"o. c #CBCBCB",
"O. c #D2D2D2",
"+. c #DDDDDD",
"@. c #E0E0E0",
"#. c #FEFEFE",
/* pixels */
"                                                                ",
", S y y y y y y y y y y y y y y y y y y y y y y y y y y y y S , ",
", S y y y y y y y y y y y y t y y y y y y y y y t y y y t y y , ",
"                                                                ",
"    1 K r   2 H   t y   G y t J   y y   J , , H e t 8 2 D F t > ",
"    1 U t   2 J X S y   J , 2 e   y y   J , 1 K X       2 H     ",
"    1 K r   1 H q F t   G y S 0   y t   H , @ y q F t   2 H X   ",
"    1 Y y   2 K   S S   U , , Y   S D   K 2   X   D S   2 K     ",
"    > S 9   , t   0 0   t # > t   9 t e y # # t e y 9   > t     ",
"                        .                                       ",
"                .                                               ",
"              .   . o '  .5                                     ",
"          5 .   j o. .} ..l                                     ",
"        5 #.m ] +.j   = X.o                               .     ",
"        b n [  .o     k |                   .       .   k #..   ",
"        X.j       .   | k                               ; l     ",
"      = o.=   .     ] O.                : c x z                 ",
"        ] +.n     ; o.=           . 6 A N z x x Z C : . $ .     ",
"          = @.l      .[         + Z v O O       - : Z x ( a     ",
"        .   l O.k | ..{       o Z -       .           V h d     ",
"              m X.k o         7 M                 .   B h d     ",
"@ X                           Z -                     B h d   . ",
"r >             .         .   Z :                     V h d     ",
"9 q q 0                       7 M   .       .     .   4 ) a     ",
"0 0 0 9 2 8 ,                 . V +                   . _ p     ",
"0 0 0 0 0 e 8 X @ X           f ^ / E ! ! ! ! ! ! ! ! ~ _ p     ",
"0 0 0 0 0 9 q q r #       X   ~ p 3 % < * * * * < * * <   W *   ",
"0 9 9 0 0 0 0 0 9 q q 0       R T a                       ~ *   ",
"0 0 0 0 0 0 0 0 0 0 0 0 2 8 1 P L u , 8 2 2 8 8 2 2 8 8 1 I w 1 ",
"0 0 0 0 0 0 0 0 0 0 0 0 q q q 9 0 0 q q q q q 0 q q q 0 q 9 0 q ",
"0 9 9 0 9 9 9 9 9 9 9 9 9 9 9 9 0 9 9 9 9 9 9 9 9 9 9 9 9 0 0 9 ",
"e e e e e e e e e e e e e e e e e e e e e e e e e e e e e e e e "
};
